Coordinates
version=1
nRows=17
nColumns=40
inDegrees=yes

Units are S.I. units (second, meters, Newtons, ...)
If the header above contains a line with 'inDegrees', this indicates whether rotational values are in degrees (yes) or radians (no).

endheader
time	pelvis_tilt	pelvis_list	pelvis_rotation	pelvis_tx	pelvis_ty	pelvis_tz	hip_flexion_r	hip_adduction_r	hip_rotation_r	knee_angle_r	knee_angle_r_beta	ankle_angle_r	subtalar_angle_r	mtp_angle_r	hip_flexion_l	hip_adduction_l	hip_rotation_l	knee_angle_l	knee_angle_l_beta	ankle_angle_l	subtalar_angle_l	mtp_angle_l	lumbar_extension	lumbar_bending	lumbar_rotation	arm_flex_r	arm_add_r	arm_rot_r	elbow_flex_r	pro_sup_r	wrist_flex_r	wrist_dev_r	arm_flex_l	arm_add_l	arm_rot_l	elbow_flex_l	pro_sup_l	wrist_flex_l	wrist_dev_l
     18.30000000	    -35.49472834	      7.80790230	    151.33615046	      0.39710759	      0.97664468	     -0.63959740	    -11.46709001	      1.25132431	     37.63134711	     26.65050660	      0.46513909	     -1.66341187	      0.00000000	      0.00000000	    -22.04501849	     -1.77861102	    -25.78179658	     19.68702598	      0.34360342	     -1.60354803	      0.00000000	      0.00000000	    -69.68250629	    -14.91032306	    -89.93521570	    -89.92413826	     89.99363266	    -89.92441479	      0.02438645	     89.90859313	      0.00000000	      0.00000000	    -60.33822062	     18.83166977	    -89.12859959	     70.89370354	     87.96974290	      0.00000000	      0.00000000
     18.30500000	    -35.42878781	      7.75471698	    151.37767086	      0.39641248	      0.97675767	     -0.63967831	    -11.41979095	      1.22649469	     37.59114829	     26.65413417	      0.46520240	     -1.68060034	      0.00000000	      0.00000000	    -22.00117617	     -1.77178491	    -25.79545788	     19.67995402	      0.34347999	     -1.57650316	      0.00000000	      0.00000000	    -69.70286742	    -14.88474996	    -89.93581271	    -89.92430747	     89.99364473	    -89.92438731	      0.02432340	     89.90915836	      0.00000000	      0.00000000	    -60.23268302	     18.82339066	    -89.18800447	     70.94165736	     88.01910092	      0.00000000	      0.00000000
     18.31000000	    -35.34381013	      7.78376704	    151.35185172	      0.39596827	      0.97685532	     -0.64001593	    -11.38249943	      1.29944853	     37.58435496	     26.64650538	      0.46506925	     -1.67805413	      0.00000000	      0.00000000	    -21.98669407	     -1.83217286	    -25.82296396	     19.66443806	      0.34320919	     -1.56430018	      0.00000000	      0.00000000	    -69.74877681	    -14.91953706	    -89.93586931	    -89.92413211	     89.99363944	    -89.92433942	      0.02437637	     89.90906725	      0.00000000	      0.00000000	    -60.28002281	     18.86371866	    -89.11572169	     70.89326795	     87.99762882	      0.00000000	      0.00000000
     18.31500000	    -35.23823216	      7.74778015	    151.38222026	      0.39536304	      0.97701286	     -0.64002659	    -11.30970648	      1.31044840	     37.56435065	     26.62102851	      0.46462460	     -1.69551534	      0.00000000	      0.00000000	    -21.90987704	     -1.84518085	    -25.85912852	     19.64123808	      0.34280427	     -1.53917345	      0.00000000	      0.00000000	    -69.76945907	    -14.87407195	    -89.93639142	    -89.92426554	     89.99364836	    -89.92436534	      0.02432003	     89.90933197	      0.00000000	      0.00000000	    -60.15897291	     18.86399906	    -89.16594096	     70.92466054	     88.04429890	      0.00000000	      0.00000000
     18.32000000	    -35.14158363	      7.78473849	    151.34234029	      0.39490528	      0.97716219	     -0.64032379	    -11.26913576	      1.37985446	     37.55857653	     26.60852277	      0.46440633	     -1.69558361	      0.00000000	      0.00000000	    -21.89070833	     -1.91348847	    -25.88943012	     19.62451217	      0.34251235	     -1.53006556	      0.00000000	      0.00000000	    -69.81557659	    -14.89652150	    -89.93645274	    -89.92412654	     89.99364191	    -89.92439504	      0.02437417	     89.90906615	      0.00000000	      0.00000000	    -60.20909249	     18.90465165	    -89.10232080	     70.88028582	     88.02131075	      0.00000000	      0.00000000
     18.32500000	    -35.03762002	      7.80205585	    151.32661605	      0.39439500	      0.97731664	     -0.64053061	    -11.22216404	      1.43458273	     37.55814399	     26.58849647	      0.46405681	     -1.70056754	      0.00000000	      0.00000000	    -21.85223001	     -1.96884410	    -25.93448335	     19.60106634	      0.34210314	     -1.52194963	      0.00000000	      0.00000000	    -69.85208351	    -14.89930511	    -89.93675830	    -89.92414373	     89.99364101	    -89.92424499	      0.02440189	     89.90933059	      0.00000000	      0.00000000	    -60.20698569	     18.94201673	    -89.09401410	     70.85321407	     88.00520940	      0.00000000	      0.00000000
     18.33000000	    -34.80890991	      7.70615084	    151.36816496	      0.39378991	      0.97746757	     -0.64053903	    -11.07166350	      1.39637498	     37.47028783	     26.38047991	      0.46042623	     -1.78675706	      0.00000000	      0.00000000	    -21.61867427	     -2.00165129	    -25.91505025	     19.57763000	      0.34169410	     -1.52431217	      0.00000000	      0.00000000	    -69.76561360	    -14.82970210	    -89.93709549	    -89.92424816	     89.99365095	    -89.92434096	      0.02434387	     89.90948367	      0.00000000	      0.00000000	    -60.08232320	     18.91665578	    -89.16186759	     70.86568041	     88.13736646	      0.00000000	      0.00000000
     18.33500000	    -34.67539288	      7.72401619	    151.36872503	      0.39334997	      0.97770733	     -0.64058051	    -11.01074429	      1.45561992	     37.46475442	     26.31853147	      0.45934503	     -1.81740904	      0.00000000	      0.00000000	    -21.54430062	     -2.07266038	    -25.95602924	     19.55008322	      0.34121332	     -1.52510428	      0.00000000	      0.00000000	    -69.80246072	    -14.78131817	    -89.93715658	    -89.92427271	     89.99365248	    -89.92432891	      0.02433309	     89.90958897	      0.00000000	      0.00000000	    -60.05431827	     18.94983663	    -89.14246369	     70.87060781	     88.13909744	      0.00000000	      0.00000000
     18.34000000	    -34.51630680	      7.72524272	    151.36230352	      0.39288429	      0.97790941	     -0.64069320	    -10.93875554	      1.48803731	     37.41670665	     26.20519097	      0.45736686	     -1.85288127	      0.00000000	      0.00000000	    -21.44129199	     -2.13935079	    -25.98038381	     19.52021142	      0.34069196	     -1.52837567	      0.00000000	      0.00000000	    -69.80378659	    -14.74655060	    -89.93723988	    -89.92420274	     89.99365120	    -89.92432859	      0.02434077	     89.90957979	      0.00000000	      0.00000000	    -60.01678440	     18.97876028	    -89.15868789	     70.87095760	     88.14129584	      0.00000000	      0.00000000
     18.34500000	    -34.41051900	      7.76322235	    151.32172357	      0.39257624	      0.97812465	     -0.64098017	    -10.89865688	      1.56234914	     37.40648501	     26.17430163	      0.45682774	     -1.85613748	      0.00000000	      0.00000000	    -21.40256223	     -2.20941195	    -26.00385734	     19.49996303	      0.34033856	     -1.52480917	      0.00000000	      0.00000000	    -69.86213062	    -14.77154370	    -89.93697328	    -89.92415831	     89.99364377	    -89.92426852	      0.02441668	     89.90944511	      0.00000000	      0.00000000	    -60.07383486	     19.00895818	    -89.10069768	     70.83023404	     88.10968273	      0.00000000	      0.00000000
     18.35000000	    -34.17016861	      7.67702708	    151.41102921	      0.39204786	      0.97837298	     -0.64093692	    -10.78206691	      1.53022211	     37.31358026	     25.87436018	      0.45159278	     -1.96285738	      0.00000000	      0.00000000	    -21.15432137	     -2.26523758	    -25.89969964	     19.45400644	      0.33953647	     -1.58771734	      0.00000000	      0.00000000	    -69.78305887	    -14.66244179	    -89.93739572	    -89.92422070	     89.99365184	    -89.92430884	      0.02435864	     89.90976059	      0.00000000	      0.00000000	    -59.97192553	     18.98818560	    -89.16276259	     70.85947606	     88.16110838	      0.00000000	      0.00000000
     18.35500000	    -34.07196434	      7.71713662	    151.37898778	      0.39177573	      0.97859100	     -0.64127977	    -10.74636906	      1.61272625	     37.30943460	     25.85317621	      0.45122305	     -1.97048831	      0.00000000	      0.00000000	    -21.12519044	     -2.34087971	    -25.92384486	     19.43319563	      0.33917325	     -1.58502952	      0.00000000	      0.00000000	    -69.84435335	    -14.68132967	    -89.93702187	    -89.92416546	     89.99364352	    -89.92427735	      0.02442170	     89.90940365	      0.00000000	      0.00000000	    -60.02540751	     19.01670916	    -89.09612510	     70.81774310	     88.12723838	      0.00000000	      0.00000000
     18.36000000	    -34.08796505	      8.30481567	    152.74369298	      0.39046476	      0.98023810	     -0.63936175	    -11.74582536	      2.04518615	     36.35387277	     24.49160087	      0.42745907	     -2.80393246	      0.00000000	      0.00000000	    -21.27981560	     -3.30222447	    -24.84781842	     19.55568020	      0.34131101	     -1.48740820	      0.00000000	      0.00000000	    -70.32171469	    -13.14353323	    -89.93833782	    -89.92429464	     89.99366333	    -89.92440885	      0.02426450	     89.90964243	      0.00000000	      0.00000000	    -59.87516119	     19.01972766	    -89.15124299	     70.90949745	     88.22389471	      0.00000000	      0.00000000
     18.36500000	    -33.99271897	      8.33934553	    152.70426110	      0.39021647	      0.98047170	     -0.63965773	    -11.69932752	      2.11869774	     36.35450607	     24.47136906	      0.42710596	     -2.80184121	      0.00000000	      0.00000000	    -21.24578412	     -3.36738297	    -24.88935006	     19.53056603	      0.34087268	     -1.48187646	      0.00000000	      0.00000000	    -70.38322453	    -13.17056131	    -89.93820778	    -89.92420324	     89.99365709	    -89.92438111	      0.02430753	     89.90933028	      0.00000000	      0.00000000	    -59.92135572	     19.04359246	    -89.08822395	     70.86744193	     88.18337013	      0.00000000	      0.00000000
     18.37000000	    -33.76916713	      8.22166692	    152.72628831	      0.38978311	      0.98061418	     -0.63981165	    -11.51989026	      2.07515736	     36.29127433	     24.29946082	      0.42410560	     -2.87636409	      0.00000000	      0.00000000	    -21.02660133	     -3.36640514	    -24.92108067	     19.43915238	      0.33927721	     -1.54105575	      0.00000000	      0.00000000	    -70.28903459	    -13.15426601	    -89.93852434	    -89.92426479	     89.99366416	    -89.92438611	      0.02426453	     89.90976986	      0.00000000	      0.00000000	    -59.84063058	     19.00854785	    -89.14519590	     70.88635707	     88.18611503	      0.00000000	      0.00000000
     18.37500000	    -33.58254238	      8.15640731	    152.72560538	      0.38947510	      0.98074684	     -0.64009788	    -11.37021286	      2.09490553	     36.29006491	     24.20404483	      0.42244027	     -2.96863163	      0.00000000	      0.00000000	    -20.86852745	     -3.38877409	    -24.91396654	     19.36337927	      0.33795472	     -1.59059069	      0.00000000	      0.00000000	    -70.24251313	    -13.16923620	    -89.93845689	    -89.92416977	     89.99366447	    -89.92429016	      0.02427177	     89.90968536	      0.00000000	      0.00000000	    -59.85608907	     18.98211697	    -89.12500373	     70.87194343	     88.19231101	      0.00000000	      0.00000000
     18.38000000	    -33.43590000	      8.10189142	    152.74343960	      0.38920004	      0.98090486	     -0.64040822	    -11.25285039	      2.11772810	     36.29426735	     24.14831573	      0.42146762	     -3.01403075	      0.00000000	      0.00000000	    -20.75820542	     -3.42386424	    -24.97677048	     19.29273638	      0.33672177	     -1.61163660	      0.00000000	      0.00000000	    -70.23021047	    -13.17938972	    -89.93840102	    -89.92416592	     89.99366177	    -89.92426765	      0.02429516	     89.90983804	      0.00000000	      0.00000000	    -59.86475721	     18.96059372	    -89.11885783	     70.88125043	     88.18058536	      0.00000000	      0.00000000
